<?xml version="1.0" encoding="UTF-8" standalone="no"?><!DOCTYPE svg PUBLIC "-//W3C//DTD SVG 1.1//EN" "http://www.w3.org/Graphics/SVG/1.1/DTD/svg11.dtd"><svg width="100%" height="100%" viewBox="0 0 225 225" version="1.1" xmlns="http://www.w3.org/2000/svg" xmlns:xlink="http://www.w3.org/1999/xlink" xml:space="preserve" style="fill-rule:evenodd;clip-rule:evenodd;stroke-linejoin:round;stroke-miterlimit:1.41421;"><g><circle cx="112.417" cy="112.417" r="112.417" style="fill:#fff;"/><g transform="matrix(0.75,0,0,0.75,-107.633,-251.501)"><path d="M243.231,497.535l27.527,8.32c-1.849,7.72 -4.761,14.168 -8.736,19.346c-3.976,5.177 -8.91,9.083 -14.804,11.718c-5.894,2.634 -13.394,3.952 -22.5,3.952c-11.048,0 -20.073,-1.606 -27.076,-4.819c-7.004,-3.213 -13.048,-8.864 -18.132,-16.953c-5.085,-8.09 -7.627,-18.444 -7.627,-31.064c0,-16.825 4.472,-29.757 13.416,-38.794c8.945,-9.037 21.599,-13.556 37.963,-13.556c12.804,0 22.87,2.589 30.196,7.766c7.327,5.178 12.77,13.128 16.329,23.852l-27.735,6.172c-0.97,-3.098 -1.987,-5.363 -3.051,-6.796c-1.756,-2.403 -3.906,-4.252 -6.448,-5.547c-2.542,-1.294 -5.385,-1.941 -8.528,-1.941c-7.119,0 -12.574,2.866 -16.364,8.598c-2.866,4.253 -4.299,10.932 -4.299,20.038c0,11.279 1.71,19.011 5.131,23.194c3.421,4.183 8.228,6.275 14.422,6.275c6.009,0 10.551,-1.687 13.625,-5.062c3.074,-3.374 5.304,-8.274 6.691,-14.699Z" style="fill:none;"/><path d="M285.666,437.419l41.325,0l15.948,61.849l15.878,-61.849l41.187,0l0,101.649l-25.655,0l0,-77.52l-19.9,77.52l-23.228,0l-19.831,-77.52l0,77.52l-25.724,0l0,-101.649Z" style="fill:none;"/><path d="M243.231,497.535l27.527,8.32c-1.849,7.72 -4.761,14.168 -8.736,19.346c-3.976,5.177 -8.91,9.083 -14.804,11.718c-5.894,2.634 -13.394,3.952 -22.5,3.952c-11.048,0 -20.073,-1.606 -27.076,-4.819c-7.004,-3.213 -13.048,-8.864 -18.132,-16.953c-5.085,-8.09 -7.627,-18.444 -7.627,-31.064c0,-16.825 4.472,-29.757 13.416,-38.794c8.945,-9.037 21.599,-13.556 37.963,-13.556c12.804,0 22.87,2.589 30.196,7.766c7.327,5.178 12.77,13.128 16.329,23.852l-27.735,6.172c-0.97,-3.098 -1.987,-5.363 -3.051,-6.796c-1.756,-2.403 -3.906,-4.252 -6.448,-5.547c-2.542,-1.294 -5.385,-1.941 -8.528,-1.941c-7.119,0 -12.574,2.866 -16.364,8.598c-2.866,4.253 -4.299,10.932 -4.299,20.038c0,11.279 1.71,19.011 5.131,23.194c3.421,4.183 8.228,6.275 14.422,6.275c6.009,0 10.551,-1.687 13.625,-5.062c3.074,-3.374 5.304,-8.274 6.691,-14.699Z" style="fill:#245173;fill-rule:nonzero;"/><path d="M285.666,437.419l41.325,0l15.948,61.849l15.878,-61.849l41.187,0l0,101.649l-25.655,0l0,-77.52l-19.9,77.52l-23.228,0l-19.831,-77.52l0,77.52l-25.724,0l0,-101.649Z" style="fill:#245173;fill-rule:nonzero;"/></g></g></svg>